<?xml version="1.0" encoding="UTF-8" standalone="no"?>
<svg
   class="menu-icon"
   width="200"
   height="22"
   viewBox="-52.5 0 200 22"
   version="1.1"
   id="svg5"
   sodipodi:docname="work.svg"
   inkscape:version="1.1 (c4e8f9ed74, 2021-05-24)"
   xmlns:inkscape="http://www.inkscape.org/namespaces/inkscape"
   xmlns:sodipodi="http://sodipodi.sourceforge.net/DTD/sodipodi-0.dtd"
   xmlns="http://www.w3.org/2000/svg"
   xmlns:svg="http://www.w3.org/2000/svg">
  <defs
     id="defs9" />
  <sodipodi:namedview
     id="namedview7"
     pagecolor="#ffffff"
     bordercolor="#666666"
     borderopacity="1.0"
     inkscape:pageshadow="2"
     inkscape:pageopacity="0.0"
     inkscape:pagecheckerboard="0"
     showgrid="false"
     inkscape:zoom="6.23"
     inkscape:cx="99.117175"
     inkscape:cy="10.995185"
     inkscape:window-width="1366"
     inkscape:window-height="740"
     inkscape:window-x="0"
     inkscape:window-y="0"
     inkscape:window-maximized="1"
     inkscape:current-layer="svg5" />
  <path
     d="M 42.1912,20.0672 V 20.768 H 52.8088 V 19.6576 H 42.1912 M 57.196,1.2352 H 37.924 c -0.72,0 -1.3056,0.5216 -1.3056,1.2416 V 16.52 c 0,0.7168 0.5856,1.4672 1.3056,1.4672 H 43.7 c 0.3936,0.224 0.6608,0.6432 0.6608,1.128 l -0.0032,0.016 h 6.4 l -0.0032,-0.016 c 0,-0.4848 0.2672,-0.904 0.6608,-1.128 h 5.7728 c 0.72,0 1.1872,-0.752 1.1872,-1.4688 V 2.4736 c 0,-0.72 -0.4672,-1.2416 -1.184,-1.2416 z m -0.4928,14.5792 h -0.8224 c -0.272,0 -0.496,-0.1632 -0.496,-0.4352 0,-0.272 0.224,-0.432 0.496,-0.432 h 0.8224 c 0.272,0 0.4928,0.16 0.4928,0.432 0,0.272 -0.2208,0.4352 -0.4928,0.4352 z M 37.708,13.4176 V 2.3232 h 19.4848 v 11.0944 z"
     id="path2"
     style="stroke-width:1.6" />
  <path
     style="color:#000000;-inkscape-stroke:none"
     d="M -32.5,9.8007813 V 11.402344 H 28.300781 V 9.8007813 Z"
     id="line4" />
  <path
     style="color:#000000;-inkscape-stroke:none"
     d="M 66.699219,9.8007813 V 11.402344 H 127.5 V 9.8007813 Z"
     id="line6" />
</svg>
