<?xml version="1.0" encoding="UTF-8" standalone="no"?>
<svg
   class="menu-icon"
   width="200"
   height="22"
   viewBox="-52.5 0 200 22"
   version="1.1"
   id="svg5"
   sodipodi:docname="blog.svg"
   inkscape:version="1.1 (c4e8f9ed74, 2021-05-24)"
   xmlns:inkscape="http://www.inkscape.org/namespaces/inkscape"
   xmlns:sodipodi="http://sodipodi.sourceforge.net/DTD/sodipodi-0.dtd"
   xmlns="http://www.w3.org/2000/svg"
   xmlns:svg="http://www.w3.org/2000/svg">
  <defs
     id="defs9" />
  <sodipodi:namedview
     id="namedview7"
     pagecolor="#ffffff"
     bordercolor="#666666"
     borderopacity="1.0"
     inkscape:pageshadow="2"
     inkscape:pageopacity="0.0"
     inkscape:pagecheckerboard="0"
     showgrid="false"
     inkscape:zoom="1.5575"
     inkscape:cx="33.065811"
     inkscape:cy="-2.247191"
     inkscape:window-width="1366"
     inkscape:window-height="740"
     inkscape:window-x="0"
     inkscape:window-y="0"
     inkscape:window-maximized="1"
     inkscape:current-layer="svg5" />
  <path
     style="color:#000000;-inkscape-stroke:none"
     d="M -32.5,9.8007813 V 11.402344 H 28.300781 V 9.8007813 Z"
     id="line4" />
  <path
     style="color:#000000;-inkscape-stroke:none"
     d="M 66.699219,9.8007813 V 11.402344 H 127.5 V 9.8007813 Z"
     id="line6" />
  <path
     d="m 58.538261,1.5000146 c 0.006,1.51029 0.0148,3.02057 0.0177,4.53086 0.003,0.59997 0,1.197 0,1.79697 0,0.12413 0.0118,0.25418 -0.1862,0.20098 -0.7714,-0.20984 -1.40684,0.0296 -1.94475,0.62658 -0.0739,-0.13005 -0.0414,-0.24827 -0.0414,-0.36058 -0.003,-1.37729 -0.009,-2.75753 0.003,-4.13482 0.003,-0.24826 -0.0473,-0.32806 -0.31329,-0.30146 -2.46197,0.24531 -4.88257,0.65022 -7.11401,1.80879 -0.30737,0.16256 -0.43446,0.34285 -0.43151,0.71229 0.0207,3.1654 0.0118,6.3278304 0.0118,9.4932304 v 0.38126 c 0.065,0.0739 0.11823,0.0296 0.17143,0.009 2.29055,-0.86302 4.67863,-1.26202 7.10218,-1.49846 0.1862,-0.0177 0.266,0.0236 0.26009,0.22166 -0.0207,0.59111 0.0355,1.17336 0.2394,1.73196 0.0916,0.25122 -0.0946,0.22166 -0.22462,0.23053 -1.09947,0.0828 -2.18711,0.23349 -3.26884,0.44037 -1.35364,0.26009 -2.68364,0.60294 -3.93975,1.17927 -0.9576,0.43446 -1.87677,0.42855 -2.83733,0 -1.82652,-0.81573 -3.77128,-1.21473 -5.74558,-1.46595 -0.48767,-0.0621 -0.97534,-0.10936 -1.463,-0.14778 -0.19507,-0.0177 -0.20984,-0.0857 -0.15073,-0.24827 0.18915,-0.52608 0.26008,-1.06991 0.23644,-1.62555 -0.0118,-0.24235 0.0414,-0.32511 0.3192,-0.29851 2.42355,0.22758 4.80572,0.65613 7.09332,1.52506 0.0857,-0.1064 0.0502,-0.21575 0.0502,-0.31624 0,-3.24815 -0.003,-6.4963004 0.009,-9.7444504 0,-0.25122 -0.0828,-0.38422 -0.29556,-0.50244 -1.53688,-0.8512 -3.20677,-1.28862 -4.92394,-1.58713 -0.76549,-0.13005 -1.53689,-0.22462 -2.31124,-0.30147 -0.29556,-0.0296 -0.32807,0.0768 -0.32511,0.32807 0.009,1.44822 0.006,2.89644 0.006,4.41855 -0.63544,-0.63545 -1.33886,-0.79505 -2.14868,-0.51131 -0.0118,-0.0887 -0.0266,-0.15665 -0.0266,-0.22758 -0.003,-2.0482 -0.003,-4.09935 0,-6.14754 0,-0.0709 0.0118,-0.14483 0.0177,-0.21576 h 0.50244 c 0.068,0.0739 0.15665,0.0502 0.23645,0.0532 1.48368,0.0621 2.9585,0.20098 4.42445,0.45515 2.00091,0.3458 3.94566,0.86303 5.71899,1.89451 0.16551,0.0975 0.27487,0.065 0.41969,-0.0207 0.65909,-0.39309 1.35955,-0.70046 2.08366,-0.9576 2.11027,-0.75366 4.30328,-1.08173 6.5229,-1.2827 0.58224,-0.0532 1.1704,-0.009 1.74082,-0.14187 z m -22.52425,7.78492 c -0.20097,1.4127504 -0.43742,2.7870804 -0.74775,4.1495904 -0.0473,0.20393 -0.0828,0.40787 0.1596,0.47289 0.24236,0.065 0.28964,-0.15665 0.33398,-0.32807 0.266,-1.04331 0.39309,-2.11322 0.55564,-3.17721 0.0355,-0.23645 0.0532,-0.4758504 0.0975,-0.7093404 0.0828,-0.45811 0.39014,-0.73297 0.76845,-0.70342 0.40491,0.0355 0.6916,0.36058 0.70342,0.81573 0.009,0.2985104 0.003,0.5999804 0.003,0.8984904 0,1.42458 -0.0118,2.85211 0.003,4.27964 0.009,0.81277 -0.17438,1.56348 -0.61476,2.24622 -0.59997,0.92508 -0.99602,1.93292 -1.19404,3.01466 -0.0473,0.24826 -0.13891,0.28964 -0.38717,0.19802 -0.90736,-0.33694 -1.82358,-0.65022 -2.7398,-0.96056 -0.20689,-0.068 -0.29851,-0.12413 -0.18029,-0.36648 0.67387,-1.36842 0.69751,-2.81369 0.48471,-4.2826 -0.0768,-0.52017 -0.12413,-1.0433 -0.13595,-1.57235 -0.0148,-0.70637 0.20393,-1.31817 0.67091,-1.84131 0.64726,-0.72706 1.36842,-1.37728 2.06593,-2.0511504 0.0355,-0.0296 0.0827,-0.0443 0.15368,-0.0827 z m 22.94985,-0.0148 c 0.33693,0.19507 0.53791,0.46698 0.78322,0.68864 0.33693,0.3044204 0.63249,0.6590904 0.97829,0.9516904 1.06695,0.89258 1.27975,2.04524 1.08764,3.34273 -0.19211,1.28271 -0.34285,2.56837 0.0236,3.84812 0.10345,0.35762 0.22462,0.70638 0.39013,1.0374 0.0828,0.16847 0.0768,0.25713 -0.11231,0.32216 -0.97237,0.33397 -1.94179,0.6709 -2.91121,1.01375 -0.16256,0.0591 -0.23645,0.0177 -0.266,-0.15369 -0.22167,-1.25611 -0.75958,-2.38217 -1.42162,-3.45799 -0.28669,-0.46994 -0.40196,-1.00193 -0.40491,-1.54576 -0.0118,-1.82357 -0.003,-3.64419 -0.003,-5.4648104 0,-0.33989 0.11231,-0.61475 0.42265,-0.77731 0.25417,-0.133 0.51131,-0.11526 0.74479,0.0562 0.24532,0.17733 0.2926,0.4522 0.33103,0.72706 0.1596,1.1733604 0.31624,2.3467104 0.57042,3.5023304 0.0207,0.0828 0.0414,0.16256 0.065,0.24236 0.0473,0.16255 0.0946,0.36057 0.31624,0.30737 0.22167,-0.0502 0.22758,-0.23644 0.18325,-0.43446 -0.133,-0.60589 -0.266,-1.21178 -0.37831,-1.82358 -0.14187,-0.77435 -0.26009,-1.55462 -0.399,-2.3821704 z m -14.00044,-1.33295 c 0,0.77435 0,0.77435 -0.73298,0.54677 -1.12902,-0.34875 -2.27281,-0.63839 -3.43139,-0.86006 -0.22167,-0.0414 -0.27191,-0.12709 -0.26304,-0.32511 0.009,-0.29851 0.0148,-0.59702 -0.003,-0.89553 -0.0148,-0.26305 0.068,-0.33102 0.32807,-0.27782 1.13197,0.23644 2.25804,0.48471 3.36637,0.82164 0.73593,0.22462 0.73593,0.22462 0.73593,0.99011 z m 0,2.5713304 c 0,0.79208 0,0.79208 -0.74775,0.56155 -1.12902,-0.34876 -2.27282,-0.63249 -3.4314,-0.86007 -0.16846,-0.0325 -0.25418,-0.0768 -0.24826,-0.2630404 0.009,-0.3458 0.0118,-0.69455 -0.003,-1.04035 -0.009,-0.22462 0.10936,-0.22758 0.26896,-0.19507 1.33295,0.26009 2.65408,0.57633 3.95157,0.9842 0.15368,0.0502 0.21575,0.11822 0.20984,0.27487 -0.006,0.1773304 0,0.3576204 0,0.5379104 z m 4.99488,-2.5979304 c 0,-0.73593 0,-0.73593 0.73002,-0.96056 1.1172,-0.3458 2.25804,-0.59406 3.40184,-0.83051 0.20688,-0.0414 0.31328,-0.009 0.29851,0.2394 -0.0207,0.38127 0.11231,0.83347 -0.0532,1.12607 -0.17142,0.30442 -0.68273,0.22166 -1.04627,0.30442 -1.00784,0.2394 -2.01273,0.49358 -2.99397,0.83051 -0.27191,0.0946 -0.3724,0.0502 -0.33989,-0.24236 0.0177,-0.15368 0.003,-0.31328 0.003,-0.46697 z m 0,2.6008804 c 0,-0.7507104 0.003,-0.7477504 0.72115,-0.9694204 1.1172,-0.34284 2.25804,-0.59407 3.40184,-0.83051 0.23349,-0.0502 0.32511,0.0148 0.30738,0.26304 -0.0177,0.23645 -0.0325,0.48176 0.003,0.71525 0.0591,0.3783104 -0.0975,0.5142604 -0.45811,0.5763304 -1.23542,0.20984 -2.44424,0.53791 -3.62646,0.94282 -0.31624,0.10936 -0.37535,0.0148 -0.34875,-0.26895 0.0118,-0.14187 0,-0.28669 0,-0.42856 z m -4.99488,2.64817 c 0,0.78027 0,0.78027 -0.73593,0.54678 -1.10538,-0.35171 -2.22553,-0.6384 -3.36637,-0.84824 -0.23349,-0.0414 -0.35171,-0.12118 -0.33103,-0.39014 0.0296,-0.31919 0.009,-0.64726 0.006,-0.96942 0,-0.15368 0.0384,-0.19802 0.2128,-0.16551 1.35364,0.24236 2.68068,0.58225 3.9959,0.9842 0.16551,0.0503 0.23053,0.13596 0.21871,0.30442 -0.009,0.17734 0,0.35762 0,0.53791 z"
     id="path924"
     style="stroke-width:0.0295555" />
</svg>
