<?xml version="1.0" encoding="UTF-8" standalone="no"?>
<svg
   class="menu-icon"
   width="200"
   height="22"
   viewBox="-52.5 0 200 22"
   xmlns:svg="http://www.w3.org/2000/svg">
  <path
     style="color:#000000;-inkscape-stroke:none"
     d="M -32.5,9.8007813 V 11.402344 H 28.300781 V 9.8007813 Z"/>
  <path
     style="color:#000000;-inkscape-stroke:none"
     d="M 66.699219,9.8007813 V 11.402344 H 127.5 V 9.8007813 Z" />
  <path
     d="m 53.181773,17.513539 h -0.04369 c -0.05323,-0.874113 -0.110215,-1.748231 -0.159619,-2.622349 -0.0551,-1.009029 -0.410456,-1.476493 -1.396684,-1.734928 -0.666989,-0.174822 -1.345378,-0.304043 -2.019965,-0.45036 -0.186229,-0.03989 -0.332547,0.0019 -0.482667,0.15012 -0.963427,0.946329 -2.173888,0.940626 -3.17722,-0.0039 -0.104512,-0.09881 -0.188124,-0.180519 -0.34775,-0.148219 -0.72209,0.153922 -1.451791,0.273637 -2.166283,0.456064 -0.805709,0.207129 -1.305474,0.695493 -1.352977,1.586709 -0.07982,1.539205 -0.19763,3.07461 -0.231831,4.615711 -0.0058,0.228028 0.08931,0.317344 0.285038,0.381951 0.63088,0.207129 1.280765,0.349644 1.932551,0.454163 1.80904,0.294537 3.62758,0.40095 5.455626,0.193821 1.138249,-0.129214 2.266999,-0.305938 3.367245,-0.64038 0.248935,-0.07601 0.35915,-0.186229 0.345848,-0.475062 -0.02849,-0.585278 -0.0076,-1.17626 -0.0076,-1.763439 z M 41.649147,14.685962 c 0.03802,-0.63088 0.254632,-1.176253 0.81901,-1.5297 0.361045,-0.226127 0.750594,-0.378149 1.166754,-0.465563 0.543472,-0.115912 1.086944,-0.237528 1.634211,-0.343941 0.182427,-0.03609 0.239436,-0.11782 0.153923,-0.275538 -0.06461,-0.121616 -0.01901,-0.387655 -0.294537,-0.27744 -0.803808,0.317344 -1.677925,0.343948 -2.493133,0.611881 -0.953922,0.313542 -1.560106,0.879822 -1.649415,1.962963 -0.07601,0.915918 -0.134917,1.833743 -0.250836,2.751561 0,0.482669 0.0039,0.96533 -0.0019,1.447997 -0.0019,0.237528 0.06461,0.450361 0.237535,0.613783 0.09501,0.08931 0.199524,0.235627 0.334442,0.195722 0.163422,-0.04943 0.08361,-0.231831 0.09122,-0.355348 0.08931,-1.446088 0.165316,-2.892184 0.25273,-4.336377 z m 12.399139,-0.0513 c -0.0589,-0.925422 -0.349645,-1.723526 -1.31117,-2.078874 -0.351546,-0.129214 -0.714499,-0.228029 -1.079346,-0.319239 -0.566273,-0.142522 -1.164853,-0.157725 -1.708325,-0.391451 -0.184321,-0.07982 -0.286938,-0.121615 -0.353447,0.129214 -0.0551,0.205228 -0.09881,0.326844 0.182427,0.374354 0.564372,0.09311 1.121146,0.231824 1.683623,0.328738 0.972926,0.169125 1.778635,0.893123 1.871746,1.725428 0.05323,0.478865 0.07791,0.961532 0.104512,1.444193 0.06461,1.172457 0.123517,2.344909 0.190025,3.585776 0.425659,-0.216628 0.638485,-0.469359 0.638485,-0.910221 -0.0039,-1.299771 -0.134918,-2.591943 -0.21853,-3.887918 z M 44.001659,7.9875816 c 0.03609,0.2698413 0.161521,0.5130728 0.269835,0.7582056 0.06841,0.1558172 0.190025,0.2755318 0.362946,0.3211402 0.06271,0.017078 0.0589,0.066508 0.06841,0.1083141 0.06271,0.3249425 0.157725,0.6384845 0.326844,0.9292255 0.245133,0.419955 0.583377,0.752496 0.980531,1.026133 0.247034,0.171026 0.486463,0.357249 0.765804,0.47126 0.57197,0.235634 1.142045,0.21853 1.685517,-0.08741 0.482667,-0.273637 0.944428,-0.581475 1.301678,-1.016633 0.286938,-0.349651 0.509264,-0.7334973 0.53017,-1.2047641 l 0.01708,-0.1083141 c 0.0039,-0.070304 0.03042,-0.1064131 0.102617,-0.1349175 0.201426,-0.077909 0.30974,-0.2470339 0.376248,-0.4427559 0.07411,-0.2128261 0.172921,-0.4161528 0.224233,-0.6365834 V 7.6892423 c -0.02468,-0.089309 -0.04369,-0.1805193 -0.07411,-0.2679336 -0.0513,-0.1463179 -0.134917,-0.2679337 -0.277433,-0.3401453 -0.04943,-0.024683 -0.04943,-0.060773 -0.0513,-0.106413 -0.01328,-0.2546321 0.04183,-0.5035671 0.06841,-0.7543969 0.07791,-0.6821917 -0.03229,-1.3339778 -0.311641,-1.9591607 -0.07031,-0.1577248 -0.167218,-0.3040427 -0.184322,-0.4826673 -0.0058,-0.055101 -0.04183,-0.072205 -0.08931,-0.076007 -0.127313,-0.00947 -0.186223,-0.096914 -0.231832,-0.1995244 -0.01327,-0.032287 -0.03042,-0.068409 -0.0019,-0.093118 0.07601,-0.066508 0.01521,-0.076007 -0.03422,-0.089309 -0.09881,-0.024683 -0.199524,-0.020881 -0.298339,-0.0058 -0.0513,0.0076 -0.07221,-0.00761 -0.07981,-0.057035 -0.01521,-0.095013 -0.04183,-0.1881303 -0.07981,-0.2774394 -0.01901,-0.047497 -0.03802,-0.062706 -0.102618,-0.051299 -0.180519,0.03609 -0.364847,0.030419 -0.537768,-0.047497 -0.09311,-0.041825 -0.152021,-0.1197146 -0.188124,-0.212826 -0.07031,-0.1900251 -0.172928,-0.3382441 -0.397154,-0.3572492 -0.0513,-0.00387 -0.04943,-0.041825 -0.04943,-0.081711 0.0019,-0.1083142 0,-0.2166283 0,-0.3420464 -0.102617,0.053232 -0.174829,0.1159187 -0.262237,0.1463243 -0.131115,0.047497 -0.17102,0.019011 -0.174822,-0.1159188 0,-0.1463179 0.04563,-0.2850376 0.110215,-0.4180539 h -0.07981 c -0.157725,0.051299 -0.305944,0.1178135 -0.393352,0.2679337 -0.02849,0.047497 -0.0513,0.098815 -0.07982,0.1558237 -0.07221,-0.146318 0.01901,-0.2565333 0.07411,-0.3857537 -0.258434,0.081711 -0.452261,0.2337323 -0.613782,0.4294609 -0.09882,0.1216157 -0.190025,0.2489286 -0.285038,0.3743466 -0.0589,0.077909 -0.07791,0.076008 -0.117813,-0.011407 -0.0095,-0.020881 -0.01521,-0.043694 -0.02468,-0.066508 -0.0076,-0.02088 0.0039,-0.047497 -0.01901,-0.066508 -0.07601,0.03609 -0.119715,0.1045119 -0.155824,0.1748223 -0.0703,0.1368186 -0.131115,0.277433 -0.197623,0.4161528 -0.07601,0.1577248 -0.131115,0.1729211 -0.275539,0.072212 -0.01708,-0.011407 -0.03229,-0.024683 -0.04563,-0.038023 -0.114018,-0.1045183 -0.114018,-0.1064195 -0.222332,0.015209 -0.182427,0.2071226 -0.313542,0.4484595 -0.435158,0.691691 -0.07601,0.1520149 -0.174822,0.2812353 -0.298339,0.395253 -0.09311,0.085507 -0.182427,0.1748223 -0.275538,0.2660325 0.04943,0.038023 0.09501,0.022814 0.136818,0.030418 0.102617,0.019012 0.121616,0.045628 0.08361,0.1425156 -0.07411,0.1862292 -0.174822,0.3591504 -0.267934,0.5358738 -0.01521,0.030419 -0.03042,0.058903 -0.04943,0.093111 0.04369,0.011407 0.07031,-0.022814 0.102618,-0.026616 0.02849,-0.00387 0.06077,-0.024683 0.08551,0 0.03042,0.028485 -0.0019,0.055101 -0.01141,0.081711 -0.08551,0.2337322 -0.172921,0.4674581 -0.260329,0.7011903 0.02662,0.028485 0.04563,0.00387 0.06461,-0.00193 0.121616,-0.043694 0.123517,-0.043694 0.115912,0.079816 -0.02468,0.3990488 -0.03802,0.8000052 -0.0039,1.2009552 0.0019,0.030418 0.0019,0.057035 -0.02849,0.077909 -0.290741,0.2280352 -0.332547,0.5453731 -0.286938,0.8817161 z m 0.361045,-0.5757723 c 0.04943,0.1596196 0.07411,0.2983393 0.09881,0.4389602 0.01708,0.09121 0.169119,0.1786181 0.258434,0.148219 0.03609,-0.013276 0.02088,-0.045628 0.02088,-0.068409 -0.0058,-0.1140176 -0.0095,-0.2261341 -0.02088,-0.3401453 -0.0551,-0.5396761 0.05323,-1.0622418 0.169119,-1.5829128 0.08171,-0.3705444 0.152022,-0.7448976 0.271736,-1.1059426 0.03802,-0.1140176 0.08742,-0.224233 0.134924,-0.3325471 0.117814,-0.2622367 0.33064,-0.3724456 0.604277,-0.3857472 0.266032,-0.013276 0.53017,0.019011 0.782901,0.085507 0.342046,0.091217 0.670791,0.064607 1.003338,-0.03609 0.269835,-0.07981 0.545367,-0.1140176 0.82851,-0.1197146 0.311641,-0.0058 0.533966,0.1387132 0.712591,0.3743467 0.199524,0.2641378 0.313542,0.5700752 0.427559,0.876019 0.08931,0.2413305 0.176724,0.4826609 0.300241,0.7068938 0.01708,0.032287 0.03229,0.068409 0.05703,0.093111 0.188131,0.1900251 0.201432,0.4351578 0.214734,0.6783894 0.01521,0.313542 0.01901,0.627084 0.01141,0.9406261 -0.0019,0.047497 -0.02468,0.1140111 0.06841,0.1102088 0.07411,-0.00387 0.152022,0.019012 0.15962,-0.1007095 0.0095,-0.1482191 0.03609,-0.2964381 0.05703,-0.4598599 0.09691,0.045628 0.133017,0.1159123 0.15962,0.1919262 0.07221,0.2109249 0.07031,0.4218562 -0.01521,0.6251829 -0.0551,0.1311151 -0.108315,0.2641314 -0.157719,0.3990488 -0.03229,0.083612 -0.07792,0.1615207 -0.155823,0.2147272 -0.03609,0.024683 -0.07981,0.055101 -0.119715,0.041825 -0.131115,-0.041825 -0.144417,0.045628 -0.157718,0.1330227 -0.02662,0.1577184 -0.04563,0.3173379 -0.07031,0.4750627 -0.04943,0.300234 -0.190025,0.5624706 -0.374353,0.7981042 -0.406653,0.520671 -0.927318,0.914023 -1.5297,1.162951 -0.484553,0.199532 -0.997626,0.159627 -1.455585,-0.144416 -0.305937,-0.203327 -0.615683,-0.400956 -0.885518,-0.651786 -0.440855,-0.406653 -0.70119,-0.9083195 -0.798104,-1.4973998 -0.0058,-0.039892 -0.01328,-0.077909 -0.02281,-0.1178135 -0.02281,-0.093111 -0.02468,-0.1881239 -0.178624,-0.1596259 -0.104512,0.02088 -0.190026,-0.068403 -0.22993,-0.1634154 -0.09501,-0.2299364 -0.214728,-0.4522618 -0.260336,-0.6992956 -0.03422,-0.1748223 -0.0019,-0.3439476 0.09121,-0.5282692 z m 3.283633,2.2536977 c -0.110209,0.041825 -0.220424,0.038023 -0.332541,0 -0.07981,-0.026616 -0.159619,-0.051299 -0.243231,-0.043694 -0.203327,0.019011 -0.402851,0.081711 -0.613783,0.081711 0.150121,0.106413 0.313542,0.1786246 0.497864,0.1577248 0.09122,-0.00947 0.178625,-0.011407 0.264138,0.020881 0.176723,0.068409 0.353447,0.072212 0.535874,0.00947 0.09121,-0.032287 0.186222,-0.028485 0.285037,-0.0076 0.150114,0.030418 0.304036,0.024683 0.456058,-0.011407 0.01901,-0.0058 0.04369,-0.00947 0.04369,-0.032287 0.0019,-0.019011 -0.01901,-0.028485 -0.03609,-0.024683 -0.165316,0.032287 -0.296438,-0.066508 -0.431355,-0.1273193 -0.146318,-0.064607 -0.281235,-0.076008 -0.425659,-0.022814 z m 0.511172,-2.2061946 c 0.05323,0.028485 0.07601,-0.02088 0.09881,-0.05697 0.06461,-0.1026171 0.157718,-0.1615271 0.283136,-0.1919262 -0.07601,0.1824205 -0.0589,0.2793342 0.05704,0.3648474 0.09881,0.074106 0.205221,0.072212 0.302135,-0.0058 0.104518,-0.081711 0.123517,-0.1957221 0.04943,-0.359144 0.138713,0.045628 0.245132,0.1045119 0.294537,0.235627 0.01521,0.039892 0.03422,0.089315 0.08931,0.064613 0.0551,-0.022814 0.03422,-0.07031 0.02088,-0.1121164 -0.02468,-0.076014 -0.07411,-0.1330163 -0.133016,-0.1824269 -0.220431,-0.1786246 -0.596679,-0.2090238 -0.858915,-0.066508 -0.08361,0.045628 -0.155824,0.1045119 -0.203327,0.188124 -0.02662,0.039892 -0.05703,0.089316 0,0.1216157 z M 46.679114,7.1761759 C 46.496687,7.0640595 46.297163,7.0374562 46.091935,7.0754664 c -0.205228,0.038023 -0.378149,0.1292139 -0.456064,0.34204 -0.01521,0.038023 -0.01708,0.074113 0.02468,0.093118 0.04563,0.02088 0.06841,-0.011407 0.07981,-0.047497 0.05323,-0.1463179 0.17102,-0.212826 0.323042,-0.2603355 -0.07031,0.1748223 -0.0589,0.2736371 0.03609,0.3572492 0.08171,0.072212 0.190026,0.089309 0.27744,0.038023 0.15012,-0.087408 0.176723,-0.2185294 0.100716,-0.3857471 0.127313,0.043694 0.214727,0.1026107 0.271736,0.2052214 0.01708,0.034221 0.04563,0.064613 0.08741,0.041825 0.03989,-0.022814 0.03229,-0.060772 0.01521,-0.096907 -0.03802,-0.077915 -0.09691,-0.1406209 -0.172921,-0.1862292 z M 45.618773,6.775226 c 0.09311,-0.034221 0.190026,-0.057035 0.290735,-0.07031 0.222332,-0.028485 0.42756,0.026616 0.630886,0.1140177 0.125419,0.053232 0.245133,0.030418 0.277433,-0.045628 0.03229,-0.077909 -0.01901,-0.1406209 -0.174822,-0.2014256 -0.220424,-0.087414 -0.448459,-0.1235169 -0.684086,-0.1007159 -0.190025,0.017078 -0.361052,0.093111 -0.503567,0.2204306 -0.08361,0.074106 -0.12732,0.1672241 -0.09311,0.3154432 0.06271,-0.1292204 0.15012,-0.1938274 0.256533,-0.2318311 z m 2.643248,0.07031 c 0.04369,0.0076 0.08551,0.00193 0.127319,-0.015209 0.06077,-0.024683 0.123517,-0.04943 0.186223,-0.072212 C 48.944212,6.6231976 49.371765,6.714421 49.5979,6.9823415 49.62452,6.8512264 49.6018,6.7714166 49.50289,6.6878046 49.335666,6.545289 49.139944,6.4692751 48.917612,6.4654792 c -0.247034,-0.00387 -0.482667,0.039892 -0.703091,0.1558172 -0.0551,0.028485 -0.08742,0.074113 -0.07411,0.1387198 0.01328,0.060772 0.06841,0.076007 0.121616,0.085513 z m -1.202857,1.9762586 c 0.167218,0.1140177 0.347744,0.1406209 0.530171,0.057035 0.180519,-0.081711 0.279334,-0.2299299 0.294537,-0.4294543 0.0039,-0.051299 -0.01328,-0.098815 -0.02849,-0.1463244 -0.01708,-0.053232 -0.04183,-0.1083141 -0.110216,-0.087408 -0.07031,0.020881 -0.0589,0.076008 -0.03802,0.1311151 0.04943,0.1292204 0.0058,0.2356334 -0.08741,0.3249425 -0.136812,0.1311151 -0.326837,0.1311151 -0.488365,0 -0.04182,-0.034221 -0.07981,-0.051299 -0.121615,-0.0076 -0.03802,0.039892 -0.02281,0.07981 0.0095,0.1140112 0.01521,0.013276 0.02468,0.032287 0.03989,0.043694 z m -0.07411,1.3757844 c 0.207129,0.290734 0.714498,0.313542 0.912121,0.04943 -0.305937,0.03802 -0.604276,0.0551 -0.912121,-0.04943 z"
     style="stroke-width:0.0190025" />
</svg>
