<?xml version="1.0" encoding="UTF-8" standalone="no"?>
<svg
   class="menu-icon"
   width="200"
   height="22"
   viewBox="-52.5 0 200 22"
   version="1.1"
   id="svg5"
   sodipodi:docname="contact.svg"
   inkscape:version="1.1 (c4e8f9ed74, 2021-05-24)"
   xmlns:inkscape="http://www.inkscape.org/namespaces/inkscape"
   xmlns:sodipodi="http://sodipodi.sourceforge.net/DTD/sodipodi-0.dtd"
   xmlns="http://www.w3.org/2000/svg"
   xmlns:svg="http://www.w3.org/2000/svg">
  <defs
     id="defs9" />
  <sodipodi:namedview
     id="namedview7"
     pagecolor="#ffffff"
     bordercolor="#666666"
     borderopacity="1.0"
     inkscape:pageshadow="2"
     inkscape:pageopacity="0.0"
     inkscape:pagecheckerboard="0"
     showgrid="false"
     inkscape:zoom="6.23"
     inkscape:cx="99.117175"
     inkscape:cy="10.995185"
     inkscape:window-width="1366"
     inkscape:window-height="740"
     inkscape:window-x="0"
     inkscape:window-y="0"
     inkscape:window-maximized="1"
     inkscape:current-layer="svg5" />
  <path
     d="m 38.312799,3.7103998 c 0.0032,0 4.929601,-1.2336001 9.185601,-1.2336001 4.2544,0 9.184,1.2336001 9.1888,1.2336001 1.8144,0.4176 2.944,2.2272 2.5248,4.0400001 C 58.9064,9.0799999 57.8552,10.04 56.6008,10.296 L 52.6104,7.5695999 c -0.0768,-0.4304 -0.0672,-0.8816 0.0368,-1.3344001 0.0608,-0.264 0.152,-0.5136 0.2672,-0.7472 -1.504,-0.16 -3.4288,-0.3088 -5.4144,-0.3088 -1.984,0 -3.9088,0.1472 -5.4128,0.3088 0.1152,0.2336 0.208,0.4832 0.2688,0.7472 0.104,0.4528001 0.112,0.9040001 0.0368,1.3344001 l -6.054401,1.3968 c -0.256,-0.3536 -0.4464,-0.7632 -0.5504,-1.216 -0.4192,-1.8128001 0.712,-3.6208001 2.5248,-4.0400001 z m 13.236801,2.0192 c 0.8368,3.3600001 2.8176,6.2672002 5.504,8.2832002 v 5.5104 H 37.946399 V 14.0128 C 40.6328,11.9952 42.612,9.0879999 43.4488,5.7295998 c 0.4336,-0.0368 0.8864,-0.0688 1.3552,-0.0976 v 1.4032001 h 5.392 V 5.6335998 c 0.4688,0.0256 0.9216,0.0592 1.3536,0.096 z M 51.6632,12.584 c 0,-2.2976 -1.8624,-4.1616001 -4.1632,-4.1616001 -2.2992,0 -4.1616,1.8656001 -4.1616,4.1616001 0,2.2992 1.8624,4.1648 4.1616,4.1648 2.3008,0 4.1632,-1.8656 4.1632,-4.1648 z m -1.4672,0 c 0,1.4896 -1.2064,2.6976 -2.696,2.6976 -1.488,0 -2.696,-1.208 -2.696,-2.6976 0,-1.488 1.2064,-2.696 2.696,-2.696 1.4896,0.0016 2.696,1.2096 2.696,2.696 z"
     id="path2"
     style="stroke-width:1.6" />
  <path
     style="color:#000000;-inkscape-stroke:none"
     d="M -32.5,9.8007813 V 11.400391 H 28.300781 V 9.8007813 Z"
     id="line4" />
  <path
     style="color:#000000;-inkscape-stroke:none"
     d="M 66.699219,9.8007813 V 11.400391 H 127.5 V 9.8007813 Z"
     id="line6" />
</svg>
