<?xml version="1.0" encoding="UTF-8" standalone="no"?>
<svg
   width="217px"
   height="237px"
   viewBox="0 0 217 237"
   version="1.1"
   id="svg93"
   sodipodi:docname="mf-avatar.svg"
   inkscape:version="1.1.1 (3bf5ae0d25, 2021-09-20)"
   xmlns:inkscape="http://www.inkscape.org/namespaces/inkscape"
   xmlns:sodipodi="http://sodipodi.sourceforge.net/DTD/sodipodi-0.dtd"
   xmlns:xlink="http://www.w3.org/1999/xlink"
   xmlns="http://www.w3.org/2000/svg"
   xmlns:svg="http://www.w3.org/2000/svg"
   xmlns:rdf="http://www.w3.org/1999/02/22-rdf-syntax-ns#"
   xmlns:cc="http://creativecommons.org/ns#"
   xmlns:dc="http://purl.org/dc/elements/1.1/">
  <sodipodi:namedview
     id="namedview95"
     pagecolor="#ffffff"
     bordercolor="#666666"
     borderopacity="1.0"
     inkscape:pageshadow="2"
     inkscape:pageopacity="0.0"
     inkscape:pagecheckerboard="0"
     showgrid="false"
     inkscape:zoom="1.0316456"
     inkscape:cx="178.35582"
     inkscape:cy="410.50919"
     inkscape:window-width="1366"
     inkscape:window-height="740"
     inkscape:window-x="0"
     inkscape:window-y="0"
     inkscape:window-maximized="1"
     inkscape:current-layer="mf-avatar" />
  <!-- Generator: Sketch 59 (86127) - https://sketch.com -->
  <title
     id="title2">mf-avatar</title>
  <desc
     id="desc4">Created with Sketch.</desc>
  <defs
     id="defs13">
    <circle
       id="path-1"
       cx="108"
       cy="108"
       r="108" />
    <path
       d="M-3.19744231e-14,144 L-3.19744231e-14,-1.42108547e-14 L237.6,-1.42108547e-14 L237.6,144 L226.8,144 C226.8,203.646753 178.446753,252 118.8,252 C59.153247,252 10.8,203.646753 10.8,144 L10.8,144 L-3.19744231e-14,144 Z"
       id="path-3" />
    <path
       d="M90,0 C117.835151,-5.11323436e-15 140.4,22.5648486 140.4,50.4 L140.400938,55.9494825 C145.50836,56.8068094 149.4,61.2489341 149.4,66.6 L149.4,79.2 C149.4,84.6471857 145.367296,89.1524828 140.124546,89.8932318 C138.264968,107.718065 127.114,122.779595 111.600867,130.149444 L111.6,146.7 L115.2,146.7 C150.988052,146.7 180,175.711948 180,211.5 L180,219.6 L0,219.6 L0,211.5 C-4.38277231e-15,175.711948 29.0119482,146.7 64.8,146.7 L68.4,146.7 L68.4001308,130.149918 C52.8864784,122.78024 41.7350715,107.718447 39.8746409,89.8932685 C34.6327044,89.1524828 30.6,84.6471857 30.6,79.2 L30.6,66.6 C30.6,61.2485843 34.4921486,56.8062286 39.6000641,55.9493144 L39.6,50.4 C39.6,22.5648486 62.1648486,5.11323436e-15 90,0 Z"
       id="path-5" />
    <path
       d="M140.401336,11.7639465 C156.691257,13.5869406 169.2,18.5974066 169.2,31.5692308 L169.194195,31.1796307 C192.467264,41.0099495 208.8,64.0473854 208.8,90.8995362 L208.8,99 L28.8,99 L28.8,90.8995362 C28.8,64.0473854 45.1327357,41.0099495 68.4058046,31.1796307 C68.6525649,18.4964574 81.0734584,13.568361 97.199665,11.7638345 L97.2,28.8 C97.2,40.7293506 106.870649,50.4 118.8,50.4 C130.729351,50.4 140.4,40.7293506 140.4,28.8 L140.4,28.8 Z"
       id="path-7" />
    <path
       d="M31.6060596,13.6152695 C32.5581409,22.1578223 39.8033886,28.8 48.6,28.8 C57.4237849,28.8 64.6866067,22.1167224 65.6025833,13.5360492 C65.6763017,12.8454714 64.9050687,11.7 63.9384903,11.7 C50.5338783,11.7 40.2641292,11.7 33.3781419,11.7 C32.4059551,11.7 31.5108052,12.7605992 31.6060596,13.6152695 Z"
       id="path-9" />
    <rect
       id="path-11"
       x="0"
       y="0"
       width="237.6"
       height="252" />
    <path
       d="M118.134982,20.9283675 C115.651186,18.3903589 112.767321,16.2361467 109.962327,14.0758953 C109.34341,13.5996978 108.714559,13.134975 108.109489,12.6406597 C107.971919,12.528329 106.562799,11.5191649 106.394222,11.147749 C105.988434,10.2542371 106.223538,10.9499625 106.27953,9.8837271 C106.350272,8.53545721 109.099576,4.72738744 107.048059,3.85410714 C106.145572,3.47000876 104.535665,4.49215737 103.669903,4.82975328 C101.976612,5.49045082 100.262549,6.05391591 98.5120609,6.53977621 C99.3507296,4.86870665 100.949799,1.52354791 97.944319,2.41887158 C95.6029101,3.11640875 93.421047,4.90977378 91.068199,5.75346159 C91.8466618,4.47736113 94.9599107,0.523140708 92.1467884,0.302102957 C91.2713941,0.233255133 88.7240809,1.87533613 87.781557,2.22561453 C84.9585007,3.27493992 82.0749374,3.95315138 79.1109992,4.48732594 C69.0328266,6.30364025 57.2475146,5.78577175 47.9231203,10.3741169 C40.7345316,13.9113248 33.6362518,19.399825 29.4835474,26.3887851 C25.4810568,33.1253031 23.9840362,40.4977576 23.1462706,48.2171688 C22.531568,53.8823181 22.4815971,59.7383087 22.7690804,65.4239915 C22.8630017,67.2868082 23.0725183,75.8737625 25.7787751,73.2732473 C27.1270871,71.9775192 27.1171531,66.7453865 27.4567146,64.9743669 C28.1325262,61.4507473 28.7830513,57.9114256 29.9098054,54.5004387 C31.8953972,48.4895405 34.2377091,45.6866929 39.1842288,41.5467645 C42.3585867,38.890386 44.5877115,35.3000323 47.625402,32.6201006 C48.9899695,31.4164715 47.9487079,31.5417866 50.1426122,31.6997139 C51.6164535,31.8057033 53.0969174,31.8461665 54.573769,31.8848179 C57.9901549,31.9735954 61.4119592,31.950948 64.8292481,31.9630266 C71.7113886,31.9877877 78.561319,32.0850201 85.4368368,31.7247769 C88.4922881,31.5647359 91.5561682,31.4780722 94.6034916,31.1954338 C96.3058144,31.0375065 99.3263462,29.9465101 100.727639,30.7802331 C102.010026,31.5429945 103.341781,34.0335947 104.262631,35.0536296 C106.438172,37.4642093 109.032145,39.3052847 111.576147,41.2819419 C116.880892,45.4034505 119.559153,46.9800218 121.170264,53.4209169 C122.775354,59.8379568 122.325315,65.791335 124.312111,72.106311 C124.661606,73.2166332 125.586068,75.1304819 126.725767,73.4150236 C126.93739,73.0964515 126.882603,71.3451249 126.882603,70.3374051 C126.882603,66.269634 127.912727,63.2175395 127.899903,59.1232077 C127.849209,46.6744341 127.446733,30.4417478 118.134982,20.9283675 Z"
       id="path-13" />
  </defs>
  <g
     id="mf-avatar"
     transform="translate(-10,-15)"
     style="fill:none;fill-rule:evenodd;stroke:none;stroke-width:1"
     inkscape:export-filename="/home/acile/Public/acile_-portfolio/images/g949.png"
     inkscape:export-xdpi="96"
     inkscape:export-ydpi="96">
    <g
       id="Circle"
       transform="matrix(2.0749046,0,0,2.0749046,11.743165,58.250525)"
       inkscape:export-filename="/home/acile/Public/acile_-portfolio/images/g949.png"
       inkscape:export-xdpi="96"
       inkscape:export-ydpi="96">
      <mask
         id="mask-2"
         fill="#ffffff">
        <use
           xlink:href="#path-1"
           id="use15"
           x="0"
           y="0"
           width="100%"
           height="100%" />
      </mask>
      <use
         id="Circle-Background"
         fill="#7510f7"
         xlink:href="#path-1"
         x="0"
         y="0"
         width="100%"
         height="100%"
         style="fill:#8dc63f;fill-opacity:1" />
    </g>
    <mask
       id="mask-4"
       fill="#ffffff">
      <use
         xlink:href="#path-3"
         id="use22"
         x="0"
         y="0"
         width="100%"
         height="100%" />
    </mask>
    <g
       id="Mask" />
    <g
       id="Avataaar"
       mask="url(#mask-4)"
       inkscape:export-filename="/home/acile/Public/acile_-portfolio/images/g949.png"
       inkscape:export-xdpi="96"
       inkscape:export-ydpi="96"
       transform="matrix(2.0749046,0,0,2.0749046,-10.665805,-16.44604)">
      <g
         id="Body"
         transform="translate(28.8,32.4)">
        <mask
           id="mask-6"
           fill="#ffffff">
          <use
             xlink:href="#path-5"
             id="use26"
             x="0"
             y="0"
             width="100%"
             height="100%" />
        </mask>
        <use
           fill="#d0c6ac"
           xlink:href="#path-5"
           id="use29"
           x="0"
           y="0"
           width="100%"
           height="100%" />
        <g
           id="Skin/ðŸ‘¶ðŸ»-05-Pale"
           mask="url(#mask-6)"
           fill="#ffdbb4"
           style="fill:#ffd296;fill-opacity:1">
          <g
             transform="translate(-28.8)"
             id="Color"
             style="fill:#ffd296;fill-opacity:1">
            <rect
               x="0"
               y="0"
               width="238.38387"
               height="220.35484"
               id="rect31"
               style="fill:#ffd296;fill-opacity:1" />
          </g>
        </g>
        <path
           d="m 39.6,84.6 c 0,27.83515 22.564849,50.4 50.4,50.4 27.83515,0 50.4,-22.56485 50.4,-50.4 v 0 7.2 c 0,27.83515 -22.56485,50.4 -50.4,50.4 -27.835151,0 -50.4,-22.56485 -50.4,-50.4 z"
           id="Neck-Shadow"
           fill-opacity="0.1"
           fill="#000000"
           mask="url(#mask-6)" />
      </g>
      <g
         id="Clothing/Hoodie"
         transform="translate(0,153)">
        <mask
           id="mask-8"
           fill="#ffffff">
          <use
             xlink:href="#path-7"
             id="use37"
             x="0"
             y="0"
             width="100%"
             height="100%" />
        </mask>
        <use
           id="Hoodie"
           fill="#b7c1db"
           fill-rule="evenodd"
           xlink:href="#path-7"
           x="0"
           y="0"
           width="100%"
           height="100%" />
        <g
           id="Color/Palette/Slate"
           mask="url(#mask-8)"
           fill="#293347"
           fill-rule="evenodd">
          <rect
             id="rect41"
             x="0"
             y="0"
             width="238.49072"
             height="99" />
        </g>
        <path
           d="M 91.799792,55.565056 91.8,99 H 85.5 L 85.499,52.334625 c 1.983616,1.179016 4.092607,2.259848 6.30082,3.230431 z M 152.10148,52.334357 152.1,88.65 c 0,1.739697 -1.4103,3.15 -3.15,3.15 -1.7397,0 -3.15,-1.410303 -3.15,-3.15 l 10e-4,-33.085384 c 2.20802,-0.970543 4.31682,-2.051317 6.30027,-3.230259 z"
           id="Straps"
           fill="#f4f4f4"
           fill-rule="evenodd"
           mask="url(#mask-8)" />
        <path
           d="M 155.73331,11.451433 C 169.28044,14.013416 178.65,19.117967 178.65,29.076923 178.65,46.818009 148.91609,61.2 118.8,61.2 88.683913,61.2 58.95,46.818009 58.95,29.076923 58.95,19.117967 68.319562,14.013416 81.866687,11.451433 73.689147,14.465504 68.4,19.534193 68.4,27.969231 68.4,46.322078 93.439084,61.2 118.8,61.2 c 25.36092,0 50.4,-14.877922 50.4,-33.230769 0,-8.258781 -5.07042,-13.290429 -12.95888,-16.326959 z"
           id="Shadow"
           fill-opacity="0.16"
           fill="#000000"
           fill-rule="evenodd"
           mask="url(#mask-8)" />
      </g>
      <g
         id="Face"
         transform="translate(68.4,73.8)">
        <g
           id="Mouth/Smile"
           transform="translate(1.8,46.8)">
          <mask
             id="mask-10"
             fill="#ffffff">
            <use
               xlink:href="#path-9"
               id="use47"
               x="0"
               y="0"
               width="100%"
               height="100%" />
          </mask>
          <use
             id="Mouth"
             fill-opacity="0.7"
             fill="#000000"
             fill-rule="evenodd"
             xlink:href="#path-9"
             x="0"
             y="0"
             width="100%"
             height="100%" />
          <path
             d="m 39.6,1.8 h 18.9 c 2.485281,0 4.5,2.0147186 4.5,4.5 v 5.4 c 0,2.485281 -2.014719,4.5 -4.5,4.5 H 39.6 c -2.485281,0 -4.5,-2.014719 -4.5,-4.5 V 6.3 c 0,-2.4852814 2.014719,-4.5 4.5,-4.5 z"
             id="Teeth"
             fill="#ffffff"
             fill-rule="evenodd"
             mask="url(#mask-10)" />
          <g
             id="Tongue"
             stroke-width="1"
             fill-rule="evenodd"
             mask="url(#mask-10)"
             fill="#ff4f6d">
            <g
               transform="translate(34.2,21.6)"
               id="g56">
              <circle
                 cx="9.8999996"
                 cy="9.8999996"
                 r="9.8999996"
                 id="circle52" />
              <circle
                 cx="18.9"
                 cy="9.8999996"
                 r="9.8999996"
                 id="circle54" />
            </g>
          </g>
        </g>
        <g
           id="Nose/Default"
           transform="translate(25.2,36)"
           fill="#000000"
           fill-opacity="0.16">
          <path
             d="m 14.4,7.2 c 0,3.97645 4.835325,7.2 10.8,7.2 v 0 C 31.164675,14.4 36,11.17645 36,7.2"
             id="Nose" />
        </g>
        <g
           id="Eyes/Happy-ðŸ˜"
           transform="translate(0,7.2)"
           fill="#000000"
           fill-opacity="0.6"
           style="fill:#241c1c;fill-opacity:1">
          <path
             d="M 14.544151,20.20258 C 16.206008,16.783657 19.94798,14.4 24.297822,14.4 c 4.334487,0 8.065388,2.366858 9.735995,5.766412 0.496267,1.009866 -0.209924,1.836322 -0.922271,1.223909 -2.20599,-1.896516 -5.338701,-3.080912 -8.813724,-3.080912 -3.366337,0 -6.411439,1.111468 -8.604037,2.905068 -0.801671,0.655788 -1.635694,-0.01193 -1.149634,-1.011897 z"
             id="Squint"
             style="fill:#241c1c;fill-opacity:1" />
          <path
             d="M 66.744151,20.20258 C 68.406008,16.783657 72.14798,14.4 76.497822,14.4 c 4.334487,0 8.065387,2.366858 9.735995,5.766412 0.496268,1.009866 -0.209924,1.836322 -0.922271,1.223909 -2.20599,-1.896516 -5.338701,-3.080912 -8.813724,-3.080912 -3.366337,0 -6.411439,1.111468 -8.604037,2.905068 -0.801671,0.655788 -1.635694,-0.01193 -1.149634,-1.011897 z"
             id="path63"
             style="fill:#241c1c;fill-opacity:1" />
        </g>
        <g
           id="Eyebrow/Natural/Default-Natural"
           fill="#000000"
           fill-opacity="0.6"
           style="fill:#241c1c;fill-opacity:1">
          <path
             d="M 23.435184,5.5891113 C 18.2498,6.2851159 10.163638,10.804723 10.839834,16.03603 c 0.02222,0.171219 0.281223,0.224582 0.392983,0.08161 C 13.470664,13.248302 30.773518,9.0328933 37.074841,9.9132436 37.651547,9.9940018 38.03226,9.3987309 37.638945,9.027186 34.26891,5.8453688 28.080341,4.9610234 23.435184,5.5891113"
             id="Eyebrow"
             transform="rotate(5,24.3,10.8)"
             style="fill:#241c1c;fill-opacity:1" />
          <path
             d="M 76.535184,5.5891113 C 71.3498,6.2851159 63.263638,10.804723 63.939834,16.03603 c 0.02222,0.171219 0.281223,0.224582 0.392983,0.08161 C 66.570664,13.248302 83.873518,9.0328933 90.174841,9.9132436 90.751547,9.9940018 91.13226,9.3987309 90.738945,9.027186 87.36891,5.8453688 81.180341,4.9610234 76.535184,5.5891113"
             id="path67"
             transform="matrix(-0.9961947,0.08715574,0.08715574,0.9961947,153.56419,-6.7047572)"
             style="fill:#241c1c;fill-opacity:1" />
        </g>
      </g>
      <g
         id="Top"
         style="fill:#241c1c">
        <mask
           id="mask-12"
           fill="#ffffff">
          <use
             xlink:href="#path-11"
             id="use71"
             x="0"
             y="0"
             width="100%"
             height="100%" />
        </mask>
        <g
           id="g74"
           style="fill:#241c1c" />
        <g
           mask="url(#mask-12)"
           id="g87"
           style="fill:#241c1c">
          <g
             transform="translate(43,15)"
             id="g85"
             style="fill:#241c1c">
            <mask
               id="mask-14"
               fill="#ffffff">
              <use
                 xlink:href="#path-13"
                 id="use76"
                 x="0"
                 y="0"
                 width="100%"
                 height="100%" />
            </mask>
            <use
               id="Short-Hair"
               stroke="none"
               fill="#1f3140"
               fill-rule="evenodd"
               xlink:href="#path-13"
               x="0"
               y="0"
               width="100%"
               height="100%"
               style="fill:#241c1c" />
            <g
               id="Color/Hair/Brown-Dark"
               stroke="none"
               fill="none"
               mask="url(#mask-14)"
               fill-rule="evenodd"
               style="fill:#241c1c">
              <g
                 transform="translate(-43.1,-15)"
                 fill="#4a312c"
                 id="g82"
                 style="fill:#241c1c">
                <rect
                   x="0"
                   y="0"
                   width="239.10698"
                   height="252.40645"
                   id="rect80"
                   style="fill:#241c1c" />
              </g>
            </g>
          </g>
        </g>
      </g>
    </g>
    <text
       xml:space="preserve"
       style="font-style:normal;font-weight:normal;font-size:61.3767px;line-height:1.25;font-family:sans-serif;fill:#006680;fill-opacity:1;stroke:#ffffff;stroke-width:4.76242;stroke-linecap:round;stroke-linejoin:miter;stroke-miterlimit:4;stroke-dasharray:none;stroke-opacity:1;paint-order:stroke fill markers"
       x="62.633572"
       y="444.13217"
       id="text18619"
       inkscape:export-filename="/home/acile/Public/acile_-portfolio/images/g949.png"
       inkscape:export-xdpi="96"
       inkscape:export-ydpi="96"><tspan
         sodipodi:role="line"
         id="tspan18617"
         x="62.633572"
         y="444.13217"
         style="font-style:normal;font-variant:normal;font-weight:bold;font-stretch:normal;font-family:B612;-inkscape-font-specification:'B612 Bold';fill:#006680;fill-opacity:1;stroke:#ffffff;stroke-width:4.76242;stroke-linecap:round;stroke-linejoin:miter;stroke-miterlimit:4;stroke-dasharray:none;stroke-opacity:1;paint-order:stroke fill markers">ARIEF FAJRI</tspan></text>
    <rect
       style="fill:#006680;fill-opacity:1;stroke-width:1.53442;paint-order:stroke fill markers;stop-color:#000000"
       id="rect33972"
       width="448.17938"
       height="62.60511"
       x="9.9225597"
       y="443.8248"
       ry="15.295368"
       inkscape:export-filename="/home/acile/Public/acile_-portfolio/images/g949.png"
       inkscape:export-xdpi="96"
       inkscape:export-ydpi="96" />
    <text
       xml:space="preserve"
       style="font-style:normal;font-weight:normal;font-size:32.7341px;line-height:1.25;font-family:sans-serif;fill:#ffffff;fill-opacity:1;fill-rule:evenodd;stroke:none;stroke-width:1.53442"
       x="41.871593"
       y="487.41901"
       id="text18619-3"
       inkscape:export-filename="/home/acile/Public/acile_-portfolio/images/g949.png"
       inkscape:export-xdpi="96"
       inkscape:export-ydpi="96"><tspan
         sodipodi:role="line"
         id="tspan18617-6"
         x="41.871593"
         y="487.41901"
         style="font-style:normal;font-variant:normal;font-weight:bold;font-stretch:normal;font-size:32.7341px;font-family:B612;-inkscape-font-specification:'B612 Bold';fill:#ffffff;fill-opacity:1;stroke-width:1.53442">FRONT-END DEVELOPER</tspan></text>
  </g>
  <metadata
     id="metadata891">
    <rdf:RDF>
      <cc:Work
         rdf:about="">
        <dc:title>mf-avatar</dc:title>
      </cc:Work>
    </rdf:RDF>
  </metadata>
</svg>
