<?xml version="1.0" encoding="UTF-8" standalone="no"?>
<svg
   class="menu-icon"
   width="200"
   height="22"
   viewBox="-52.5 0 200 22"
   version="1.1"
   id="svg6"
   sodipodi:docname="profile.svg"
   inkscape:version="1.1 (c4e8f9ed74, 2021-05-24)"
   xmlns:inkscape="http://www.inkscape.org/namespaces/inkscape"
   xmlns:sodipodi="http://sodipodi.sourceforge.net/DTD/sodipodi-0.dtd"
   xmlns="http://www.w3.org/2000/svg"
   xmlns:svg="http://www.w3.org/2000/svg">
  <defs
     id="defs10" />
  <sodipodi:namedview
     id="namedview8"
     pagecolor="#ffffff"
     bordercolor="#666666"
     borderopacity="1.0"
     inkscape:pageshadow="2"
     inkscape:pageopacity="0.0"
     inkscape:pagecheckerboard="0"
     showgrid="false"
     inkscape:zoom="6.23"
     inkscape:cx="99.117175"
     inkscape:cy="10.995185"
     inkscape:window-width="1366"
     inkscape:window-height="740"
     inkscape:window-x="0"
     inkscape:window-y="0"
     inkscape:window-maximized="1"
     inkscape:current-layer="svg6" />
  <path
     d="m 57.564,8.0822402 c 1.2208,-1.2208 1.5936,-2.9664 1.1248,-4.5088 l -2.424,2.4208 -2.3648,-0.6336 -0.6336,-2.3632 2.4256,-2.42400002 c -1.544,-0.46880002 -3.288,-0.096 -4.5088,1.12640002 -1.2224,1.2224 -1.4032,2.776 -0.8112,4.2016 l -2.5232,2.5184 c -0.0368,-0.096 -0.0912,-0.1872 -0.1696,-0.264 l -0.6752,-0.6768 c -0.2912,-0.288 -0.7584,-0.288 -1.048,0 l -0.576,0.5968 -3.7728,-3.776 -0.2048,-0.7312 h -0.0032 c -0.0208,-0.152 -0.0896,-0.2992 -0.208,-0.416 L 37.8888,0.74624018 c -0.288,-0.28640002 -0.6688,-0.37600002 -0.848,-0.1952 l -0.832,0.83200002 c -0.1792,0.1792 -0.0912,0.56 0.1968,0.848 l 2.4032,3.3024 c 0.1184,0.1168 0.2672,0.1872 0.4192,0.208 l 0.7232,0.1312 3.8048,3.8047997 -0.616,0.6208001 c -0.288,0.288 -0.288,0.7584 0,1.0448 l 0.6752,0.6784 c 0.0768,0.0768 0.168,0.128 0.2624,0.1632 l -5.7376,5.7328 -0.0256,0.032 c -0.832,0.8352 -0.832,2.1824 0,3.0176 0.832,0.832 2.1728,0.832 3.0048,0.008 l 0.0448,-0.032 5.2,-5.2224 5.36,5.368 c 0.7168,0.712 1.8752,0.712 2.592,-0.0032 l 2.2144,-2.2128 c 0.712,-0.7152 0.712,-1.8768 0,-2.592 l -5.3744,-5.3712 2.0064,-2.0159998 c 1.424,0.592 2.976,0.4128 4.2016,-0.8096 z M 39.9672,20.27904 c -0.3632,0.1392 -0.768,-0.0448 -0.9024,-0.4128 -0.136,-0.3616 0.048,-0.768 0.4096,-0.9008 0.3632,-0.1392 0.768,0.0432 0.9024,0.408 0.1376,0.3616 -0.0448,0.768 -0.4096,0.904 z M 44.58,8.4662402 c -0.136,0.1344 -0.3584,0.1344 -0.496,0 l -6.904,-6.912 0.224,-0.224 c 0.0896,-0.096 0.2848,-0.048 0.4352,0.1008 l 2.9024,2.44 c 0.0608,0.064 0.096,0.136 0.1072,0.216 0.0128,0.1008 0.0544,0.1952 0.1216,0.2768 l 3.6048,3.6048 c 0.1392,0.1392 0.1392,0.3616 0.0032,0.496 z m 2.4192,0.6992 -1.1456,1.1455998 -0.7088,-0.7136001 1.144,-1.1439997 c 0.168,-0.1696 0.4384,-0.1696 0.608,0 l 0.104,0.1024 c 0.168,0.168 0.168,0.44 0,0.608 z m 9.088,7.8655998 c 0.3248,0.328 0.3248,0.864 0,1.1904 l -1.12,1.12 -7.8032,-7.7984 c 0.3488,-0.392 0.9696,-0.3584 1.3696,0.048 l 4.5808,4.576 c 0.1024,0.104 0.272,0.104 0.3792,0 0.1024,-0.1024 0.1024,-0.2752 0,-0.3776 l -4.576,-4.576 c -0.4096,-0.4128 -0.4448,-1.0448 -0.0384,-1.3888001 l 7.2064,7.2064001 z"
     id="path2"
     style="stroke-width:1.6" />
  <path
     style="color:#000000;"
     d="M -32.5,9.7992629 V 11.398873 H 28.300781 V 9.7992629 Z"
     id="line4" />
  <path
     style="color:#000000;"
     d="M 66.699219,9.7992629 V 11.398873 H 127.5 V 9.7992629 Z"
     id="line6" />
</svg>
