<?xml version="1.0" encoding="UTF-8" standalone="no"?>
<svg
   class="menu-icon"
   width="200"
   height="22"
   viewBox="-52.5 0 200 22"
   version="1.1"
   id="svg5"
   sodipodi:docname="work.svg"
   inkscape:version="1.1.1 (3bf5ae0d25, 2021-09-20)"
   xmlns:inkscape="http://www.inkscape.org/namespaces/inkscape"
   xmlns:sodipodi="http://sodipodi.sourceforge.net/DTD/sodipodi-0.dtd"
   xmlns="http://www.w3.org/2000/svg"
   xmlns:svg="http://www.w3.org/2000/svg">
  <defs
     id="defs9" />
  <sodipodi:namedview
     id="namedview7"
     pagecolor="#ffffff"
     bordercolor="#666666"
     borderopacity="1.0"
     inkscape:pageshadow="2"
     inkscape:pageopacity="0.0"
     inkscape:pagecheckerboard="0"
     showgrid="false"
     inkscape:zoom="6.23"
     inkscape:cx="87.961477"
     inkscape:cy="9.8715891"
     inkscape:window-width="1366"
     inkscape:window-height="740"
     inkscape:window-x="0"
     inkscape:window-y="0"
     inkscape:window-maximized="1"
     inkscape:current-layer="svg5" />
  <path
     style="color:#000000;-inkscape-stroke:none"
     d="M -32.5,9.8007813 V 11.402344 H 28.300781 V 9.8007813 Z"
     id="line4" />
  <path
     style="color:#000000;-inkscape-stroke:none"
     d="M 66.699219,9.8007813 V 11.402344 H 127.5 V 9.8007813 Z"
     id="line6" />
  <path
     d="m 42.795811,17.939071 c 2.528757,-0.288851 5.046999,-0.7195 7.609887,-0.585579 0.228455,0.01045 0.514679,0.09716 0.51206,-0.325613 -0.0021,-0.343994 -0.01056,-0.569822 -0.462167,-0.653851 -1.945795,-0.357124 -3.881086,-0.772018 -5.821635,-1.152775 -0.280976,-0.05514 -0.472672,-0.175935 -0.635472,-0.412267 -0.798273,-1.147523 -1.614937,-2.281916 -2.418467,-3.424187 -0.407018,-0.5777 -0.955827,-0.884931 -1.656944,-0.900686 -0.653852,-0.01313 -1.310333,-0.02101 -1.964185,0.0026 -1.150151,0.04202 -1.924787,0.816659 -1.930044,1.966806 -0.01573,2.620659 0,5.241316 -0.01309,7.861974 -0.0021,0.346621 0.09712,0.451656 0.446395,0.44903 1.557168,-0.01838 3.116955,-0.0079 4.674123,-0.0079 0.656481,0 0.664357,0 0.509432,-0.645974 -0.301985,-1.268314 -0.614464,-2.534003 -0.921696,-3.799691 0.02893,-0.01575 0.05775,-0.03151 0.08403,-0.04726 l 1.207919,1.375976 c 0.207447,0.241584 0.425398,0.338743 0.779894,0.299354 z M 40.337966,9.9956931 c 2.350184,-0.02364 4.408898,-1.772489 4.395776,-4.293362 0.09185,-2.32393 -1.793499,-4.41678 -4.27761,-4.469298 -2.379079,-0.05252 -4.385271,1.882777 -4.435164,4.277607 -0.04994,2.468354 1.861771,4.5086859 4.316998,4.485053 z M 58.976669,12.823798 V 5.4371141 c 0,-0.690614 -0.126041,-0.782521 -0.772017,-0.645973 -1.244679,0.262591 -2.494616,0.514678 -3.739295,0.779895 -2.318681,0.491044 -4.634734,0.984716 -6.953405,1.481013 -0.346621,0.07353 -0.619722,0.189065 -0.617093,0.643348 0.0021,2.26616 -0.01309,4.5349459 -0.0341,6.8037309 -0.0021,0.299354 0.07094,0.506801 0.38338,0.491046 0.315107,-0.01575 0.173305,-0.296728 0.173305,-0.451657 0.0074,-1.163278 0.0074,-2.326556 0.0074,-3.489834 V 8.1102911 c 0.01573,-0.04989 0.0341,-0.09454 0.06039,-0.139174 l 0.0074,-0.01313 10.020468,-1.885403 c 0.165429,0.01575 0.233702,0.126043 0.231084,0.41752 -0.01837,3.206236 -0.01573,6.4150969 -0.0021,9.6213329 0.0021,0.365002 -0.102403,0.483167 -0.470043,0.496297 -1.733091,0.05777 -3.468822,0.149677 -5.201924,0.220576 -0.244206,0.01045 -0.449034,-0.0079 -0.449034,0.34662 0,0.393887 0.262596,0.296728 0.472671,0.296728 1.452126,0.0026 2.90688,0.01575 4.359005,-0.0079 0.399142,-0.0079 0.464786,0.178562 0.386009,0.477916 -0.07348,0.273094 -0.32824,0.141799 -0.498917,0.14705 -3.521354,0.102415 -7.050573,-0.215324 -10.56404,0.223203 -1.105505,0.139173 -2.213639,0.259965 -3.324402,0.383383 -0.27309,0.03151 -0.396513,0.09191 -0.315107,0.428023 0.246835,1.013601 0.228455,1.018853 1.273563,1.118637 l 0.315107,0.04464 c 1.404862,0.157554 2.809734,0.420145 4.219842,0.446404 3.489831,0.06564 6.979672,0.01575 10.472131,0.03151 0.433273,0.0026 0.572447,-0.105032 0.567189,-0.554067 -0.02101,-2.460476 -0.0074,-4.92358 -0.0074,-7.386683 z M 57.409007,6.0725841 c 0.03938,-0.0026 0.07348,-0.0026 0.105043,0 z M 43.389267,19.729941 c -0.196943,-0.08402 -0.593456,0.152302 -0.551438,-0.317735 0.04993,-0.54619 0.506802,-0.246836 0.774646,-0.325613 0.283595,-0.08404 0.34662,0.09978 0.34662,0.354498 0,0.493671 -0.357124,0.225827 -0.569828,0.28885 z m 3.098575,0.133921 c -0.189067,-0.03413 -0.386009,-0.0053 -0.580323,-0.0053 v -0.05515 c -0.212704,0 -0.425397,-0.01045 -0.635472,0.0026 -0.265215,0.01575 -0.422769,-0.02888 -0.422769,-0.362376 0,-0.317735 0.08931,-0.443779 0.414893,-0.441152 0.422769,0.0053 0.850795,-0.0079 1.270945,-0.05514 0.464786,-0.04726 0.333488,0.267844 0.357114,0.509427 0.03146,0.307231 -0.04729,0.472664 -0.404388,0.407016 z m 3.358542,-7.869851 c -0.0053,0.02364 -0.01309,0.03939 -0.04202,0.04463 -0.186438,0.02888 -0.375504,0.0604 -0.561942,0.09191 v 0.504174 l 0.535687,0.09454 c 0.03938,0.0079 0.05775,0.02101 0.0683,0.0604 0.02893,0.107662 0.07094,0.212699 0.12867,0.307231 0.02101,0.03151 0.01573,0.05514 -0.0053,0.08403 l -0.294099,0.407016 c -0.02101,0.02626 -0.02101,0.04464 0.0053,0.06827 0.09976,0.09453 0.196942,0.194317 0.29147,0.291476 0.02629,0.02625 0.04202,0.02364 0.0683,0.0053 l 0.412275,-0.28885 c 0.02893,-0.02101 0.05247,-0.02625 0.08403,-0.0053 0.09712,0.05777 0.199571,0.09979 0.309861,0.126044 0.0341,0.0079 0.04993,0.02364 0.05775,0.06302 0.02629,0.178563 0.06039,0.357124 0.08931,0.535686 h 0.504174 c 0.03157,-0.178562 0.06303,-0.357123 0.09195,-0.535686 0.0053,-0.03939 0.02101,-0.05514 0.05775,-0.06302 0.105042,-0.02626 0.204817,-0.06827 0.296727,-0.123419 0.03938,-0.02364 0.06566,-0.02364 0.09976,0.0053 0.131287,0.09716 0.267843,0.189065 0.40176,0.283599 0.03146,0.02364 0.05247,0.02888 0.08403,-0.0053 0.09195,-0.09454 0.183809,-0.189066 0.278348,-0.278347 0.03146,-0.03151 0.02893,-0.04989 0.0053,-0.08402 -0.09976,-0.133922 -0.194313,-0.27047 -0.291481,-0.401765 -0.02101,-0.02888 -0.02893,-0.04989 -0.0074,-0.08403 0.05775,-0.09716 0.09977,-0.199569 0.126052,-0.309857 0.01056,-0.03939 0.03146,-0.04989 0.06567,-0.05514 l 0.496298,-0.08402 c 0.04202,-0.0079 0.04994,-0.02625 0.04994,-0.06303 -0.0021,-0.126044 -0.0053,-0.252088 0,-0.378131 0.0021,-0.05777 -0.01837,-0.07615 -0.07094,-0.08141 l -0.472662,-0.07352 c -0.03674,-0.0053 -0.05775,-0.01838 -0.06831,-0.0604 -0.02629,-0.107662 -0.0683,-0.210072 -0.126051,-0.30198 -0.01837,-0.03151 -0.01573,-0.05514 0.0053,-0.08403 0.09977,-0.139173 0.194314,-0.278346 0.294099,-0.414893 0.02101,-0.03151 0.02101,-0.04726 -0.0074,-0.07353 -0.09712,-0.09191 -0.191695,-0.189066 -0.283605,-0.283598 -0.02893,-0.02888 -0.0473,-0.02888 -0.07876,-0.0053 l -0.407006,0.294102 c -0.02629,0.02101 -0.04993,0.02626 -0.07876,0.0079 -0.09712,-0.05777 -0.2022,-0.102414 -0.31249,-0.131296 -0.0341,-0.0079 -0.0473,-0.02625 -0.05257,-0.0604 l -0.0814,-0.483167 c -0.0074,-0.04463 -0.01837,-0.06827 -0.07358,-0.06564 -0.126041,0.0053 -0.257339,0.0053 -0.38338,0 -0.04729,-0.0026 -0.06039,0.01838 -0.06567,0.0604 l -0.07348,0.472664 c -0.0053,0.04202 -0.01837,0.06827 -0.06303,0.07878 -0.110289,0.02625 -0.212693,0.0709 -0.30985,0.126043 -0.02893,0.01838 -0.0473,0.01313 -0.07612,-0.0053 -0.136546,-0.09979 -0.278348,-0.196943 -0.412265,-0.296727 -0.02893,-0.02101 -0.04466,-0.02101 -0.07094,0.0053 -0.09449,0.09716 -0.191695,0.194318 -0.288852,0.28885 -0.02629,0.02625 -0.02629,0.04463 -0.0053,0.07615 0.09712,0.136548 0.194314,0.275721 0.288852,0.412269 0.01837,0.02626 0.02365,0.04465 0.0074,0.07615 -0.06302,0.08665 -0.107661,0.196943 -0.139174,0.309857 z m 1.410109,-0.307232 c 0.386009,0.0053 0.695869,0.317735 0.695869,0.701119 -0.0021,0.388634 -0.317736,0.703742 -0.703745,0.698491 -0.386009,-0.0053 -0.695869,-0.317735 -0.695869,-0.701118 0,-0.386009 0.320365,-0.703744 0.703745,-0.698492 z m 1.457383,-1.7173439 -0.301975,0.1838129 c -0.0341,0.01838 -0.04466,0.03676 -0.02629,0.07615 0.03938,0.08402 0.07348,0.17331 0.107661,0.259965 0.01573,0.04202 0.03674,0.04726 0.07612,0.03676 l 0.338735,-0.07615 c 0.03674,-0.0079 0.06303,-0.0053 0.08667,0.02888 0.0473,0.06564 0.105043,0.120792 0.168058,0.168058 0.02365,0.01838 0.03157,0.03413 0.02365,0.06564 -0.02893,0.118165 -0.05511,0.236331 -0.08667,0.354497 -0.01056,0.04202 0,0.0604 0.03938,0.07615 0.08667,0.03414 0.175934,0.06827 0.259968,0.107663 0.03674,0.01575 0.05257,0.0053 0.07094,-0.02364 l 0.196942,-0.307232 c 0.01837,-0.02888 0.03674,-0.04202 0.07348,-0.03414 0.07876,0.01313 0.160183,0.01313 0.23896,0 0.0341,-0.0053 0.04993,0.0026 0.0683,0.03151 l 0.196942,0.315109 c 0.01837,0.03151 0.03674,0.03939 0.07094,0.02364 0.08667,-0.03939 0.175933,-0.07615 0.265215,-0.110288 0.02893,-0.01045 0.04466,-0.02364 0.0341,-0.0604 l -0.08667,-0.362376 c -0.0074,-0.03414 -0.0021,-0.05514 0.02629,-0.07615 0.06303,-0.04726 0.120794,-0.105032 0.168058,-0.168058 0.02101,-0.02625 0.03938,-0.03151 0.07094,-0.02364 0.120794,0.02888 0.241577,0.05252 0.362372,0.08402 0.03938,0.01045 0.05257,-0.0026 0.06566,-0.03676 0.0341,-0.08665 0.07094,-0.175936 0.110289,-0.259965 0.01837,-0.03676 0.01056,-0.05514 -0.02365,-0.07615 -0.105042,-0.06303 -0.207446,-0.12867 -0.30986,-0.1916919 -0.02629,-0.01575 -0.03938,-0.03151 -0.0341,-0.06564 0.01056,-0.07878 0.01056,-0.16018 0.0021,-0.238958 -0.0021,-0.03413 0.0021,-0.05514 0.0341,-0.07353 0.105043,-0.06303 0.210075,-0.131296 0.315108,-0.196943 0.03157,-0.01838 0.0341,-0.03414 0.02101,-0.06564 -0.03938,-0.08928 -0.07612,-0.178563 -0.110289,-0.270469 -0.01309,-0.03413 -0.02893,-0.03939 -0.06303,-0.03151 l -0.354496,0.08402 c -0.0341,0.0079 -0.05511,0.0053 -0.07612,-0.02364 -0.04993,-0.06564 -0.107661,-0.123417 -0.173305,-0.17331 -0.02365,-0.01838 -0.02893,-0.03676 -0.02365,-0.06564 l 0.08403,-0.362375 c 0.0074,-0.03414 0.0021,-0.05252 -0.0341,-0.06827 -0.09195,-0.03414 -0.181192,-0.07353 -0.270473,-0.112914 -0.02893,-0.01313 -0.04466,-0.0079 -0.06039,0.02101 l -0.191685,0.312483 c -0.01837,0.03151 -0.04202,0.04202 -0.07612,0.03939 -0.07876,-0.01045 -0.160172,-0.01313 -0.238949,0 -0.0341,0.0053 -0.04993,-0.0079 -0.06566,-0.03676 -0.06039,-0.102414 -0.12867,-0.202196 -0.189067,-0.307231 -0.02365,-0.03939 -0.04202,-0.04202 -0.07876,-0.02364 -0.07876,0.03676 -0.160182,0.0709 -0.244206,0.09979 -0.0473,0.01575 -0.05775,0.03676 -0.0473,0.08665 0.02893,0.120791 0.05247,0.241583 0.0814,0.375505 0.0053,0.01313 -0.01837,0.02626 -0.0341,0.03939 -0.06039,0.04726 -0.118165,0.102414 -0.165429,0.162806 -0.02365,0.03414 -0.04993,0.03939 -0.08667,0.02888 -0.115536,-0.02888 -0.233702,-0.05252 -0.349238,-0.08402 -0.03674,-0.01045 -0.04993,0 -0.06039,0.03151 -0.03674,0.08928 -0.07094,0.178562 -0.110289,0.265217 -0.01837,0.03939 -0.0074,0.05514 0.02629,0.07615 0.102403,0.06303 0.202199,0.128669 0.301985,0.194318 0.02629,0.01838 0.03674,0.03413 0.0341,0.06827 -0.0074,0.07878 -0.01056,0.160181 0,0.238957 -0.0053,0.02888 -0.01573,0.05252 -0.0473,0.0709 z m 1.152779,-0.722126 c 0.294099,0.0053 0.533058,0.246836 0.527801,0.538311 -0.0074,0.3019799 -0.238959,0.5304339 -0.538305,0.5278079 -0.296728,0 -0.535687,-0.246836 -0.53044,-0.5356859 0.0021,-0.296727 0.246835,-0.535684 0.540944,-0.530433 z"
     id="path8"
     style="stroke-width:0.0262591" />
</svg>
